<svg xmlns="http://www.w3.org/2000/svg" viewBox="0 0 83 78"><defs><style>.cls-1{fill:none;}</style></defs><title>全港食店</title><g id="图层_2" data-name="图层 2"><g id="全港食店"><path class="cls-1" d="M36.21,33.1a14.11,14.11,0,0,1-3.42.43,12.89,12.89,0,0,1-10.26-4.76,12.89,12.89,0,0,1-10.26,4.76,14,14,0,0,1-4.84-.86V66.3H36.21Z"/><path class="cls-1" d="M12.26,29.53c4.56,0,8.26-2.91,8.26-6.49h4c0,3.58,3.71,6.49,8.26,6.49s8.26-2.91,8.26-6.49h4c0,3.58,3.71,6.49,8.26,6.49s8.26-2.91,8.26-6.49v-4.4h0V13H4V23C4,26.61,7.71,29.53,12.26,29.53Z"/><rect class="cls-1" x="4" y="70.3" width="57.58" height="3.7"/><path class="cls-1" d="M65.58,16.58A17,17,0,0,0,72,18c3.86,0,7-2.44,7-5.45V4H29V9H65.58Z"/><path class="cls-1" d="M65.58,20.87V23a9.72,9.72,0,0,1-3.42,7.25v18H76V21.34A12.52,12.52,0,0,1,72,22,21.73,21.73,0,0,1,65.58,20.87Z"/><path class="cls-1" d="M53.32,33.53a12.89,12.89,0,0,1-10.26-4.76A11.3,11.3,0,0,1,40.77,31V66.3H58.16V32.67A14,14,0,0,1,53.32,33.53ZM48.75,53.19H44.19V42.93h4.56Z"/><rect class="cls-1" x="62.16" y="52.25" width="16.84" height="2.75"/><rect x="44.19" y="42.93" width="4.56" height="10.26"/><path d="M83,12.55V0H25V9H0V23a9.72,9.72,0,0,0,3.42,7.25v36H0V78H65.58V66.3H62.16V59H83V48.25H80V19A8.75,8.75,0,0,0,83,12.55ZM29,4H79v8.55c0,3-3.14,5.45-7,5.45a17,17,0,0,1-6.42-1.42V9H29ZM4,13H61.58v5.62h0V23c0,3.58-3.71,6.49-8.26,6.49S45.05,26.61,45.05,23h-4c0,3.58-3.71,6.49-8.26,6.49S24.53,26.61,24.53,23h-4c0,3.58-3.71,6.49-8.26,6.49S4,26.61,4,23ZM7.42,32.67a14,14,0,0,0,4.84.86,12.89,12.89,0,0,0,10.26-4.76,12.89,12.89,0,0,0,10.26,4.76,14.11,14.11,0,0,0,3.42-.43V66.3H7.42ZM61.58,74H4V70.3H61.58ZM40.77,66.3V31a11.3,11.3,0,0,0,2.28-2.2,12.89,12.89,0,0,0,10.26,4.76,14,14,0,0,0,4.84-.86V66.3ZM79,55H62.16V52.25H79Zm-3-6.75H62.16v-18A9.72,9.72,0,0,0,65.58,23V20.87A21.73,21.73,0,0,0,72,22a12.52,12.52,0,0,0,4-.66Z"/></g></g></svg>