<svg xmlns="http://www.w3.org/2000/svg" viewBox="0 0 91 69.22"><defs><style>.cls-1{fill:none;}.cls-2{fill:#6cc24a;}</style></defs><title>全港人口</title><g id="图层_2" data-name="图层 2"><g id="全港人口2"><path class="cls-1" d="M45,34A11.62,11.62,0,0,0,56.57,22.43V15.61a11.61,11.61,0,0,0-23.22,0v6.82A11.63,11.63,0,0,0,45,34Z"/><path class="cls-1" d="M62.11,42.2l.56,0h.39V39.26a12.13,12.13,0,0,1-5.76-7.32A15.71,15.71,0,0,1,52.6,36v4.43h1.21A20.66,20.66,0,0,1,62.11,42.2Z"/><path class="cls-1" d="M68.94,36.79h0A8.1,8.1,0,0,0,77,28.7V24.87a8.09,8.09,0,0,0-16.17,0V28.7A8.1,8.1,0,0,0,68.94,36.79Z"/><path class="cls-1" d="M48.6,43.55v-6a15.18,15.18,0,0,1-7,.07v5.53l3.65,6.26Z"/><path class="cls-1" d="M67.06,40.63v4.22l.46.82a21,21,0,0,1,2,2l1.78-3.05v-4a11.49,11.49,0,0,1-4.21.07Z"/><path class="cls-1" d="M28.33,42.17c.23,0,.45,0,.67,0a20.66,20.66,0,0,1,8.31-1.74h.29V36.19a15.71,15.71,0,0,1-4.78-4,12.13,12.13,0,0,1-4.88,6.54v3.4Z"/><path class="cls-1" d="M75,46.17h0l-3,5.06a20.65,20.65,0,0,1,2.55,9.31s0,.07,0,.1h5.53V55.11h2.74v5.52H87V58.19A12,12,0,0,0,75,46.17Z"/><path class="cls-1" d="M29.34,28.7V24.87a8.09,8.09,0,0,0-16.17,0V28.7a8.09,8.09,0,1,0,16.17,0Z"/><path class="cls-1" d="M60.76,46l-1-.48a16.68,16.68,0,0,0-5.93-1.1H52.68l-7.39,13-7.59-13h-.4a16.7,16.7,0,0,0-6.5,1.31l-.3.14-.41.2a16.73,16.73,0,0,0-2.78,1.68L27,48q-.39.31-.77.63l-.19.18a16.91,16.91,0,0,0-2.18,2.38h0l-.12.17c-.15.2-.28.4-.42.61l-.23.34a16.93,16.93,0,0,0-1.06,1.94l0,.1c-.14.3-.26.61-.38.92l-.15.4c-.1.29-.2.57-.29.87s-.22.79-.31,1.19c0,.19-.07.39-.11.59s-.11.63-.15,1c0,.17,0,.34-.06.51,0,.49-.08,1-.08,1.5v4h6.25V57.13h3.67v8.09H60.69V57.13h3.67v8.09h6.25v-3.5A17.51,17.51,0,0,0,60.76,46Z"/><path class="cls-1" d="M8.15,55.11h2.74v5.52h5.63c0-.45,0-.9.09-1.35,0-.13,0-.25,0-.38.06-.55.14-1.1.25-1.65,0-.19.08-.38.13-.57q.13-.59.3-1.18c.1-.33.2-.66.31-1s.18-.5.27-.74q.26-.67.56-1.31l.24-.51c.11-.21.2-.44.31-.65l-3-5.16h0a12,12,0,0,0-12,12v2.45H8.15Z"/><path class="cls-1" d="M21.55,47.71q.43-.5.9-1l.52-.5.2-.2.19-.18.57-1V40.48a11.43,11.43,0,0,1-4.21.2v3.9Z"/><path class="cls-2" d="M91,58.19a16,16,0,0,0-15.73-16V39A12.08,12.08,0,0,0,81,28.7V24.87a12.07,12.07,0,0,0-20.46-8.7v-.56a15.61,15.61,0,0,0-31.22,0v.3a12.07,12.07,0,0,0-20.17,9V28.7a12.09,12.09,0,0,0,6.56,10.74v2.73A16,16,0,0,0,0,58.19v6.45H16.51v4.58h58.1V64.63H91ZM71.27,44.58l-1.78,3.05a21,21,0,0,0-2-2l-.46-.82V40.63a11.49,11.49,0,0,0,4.21-.07ZM32.82,32.22a15.71,15.71,0,0,0,4.78,4v4.27h-.29A20.66,20.66,0,0,0,29,42.2c-.22,0-.44,0-.67,0h-.39v-3.4A12.13,12.13,0,0,0,32.82,32.22Zm8.78,5.44a15.18,15.18,0,0,0,7-.07v6l-3.35,5.91L41.6,43.19Zm11,2.79V36a15.71,15.71,0,0,0,4.71-4.09,12.13,12.13,0,0,0,5.76,7.32v2.91h-.39l-.56,0a20.66,20.66,0,0,0-8.3-1.74Zm8.25-15.59a8.09,8.09,0,0,1,16.17,0V28.7a8.1,8.1,0,0,1-8.09,8.09h0a8.1,8.1,0,0,1-8.09-8.09ZM33.34,15.61a11.61,11.61,0,0,1,23.22,0v6.82a11.61,11.61,0,0,1-23.22,0ZM13.17,28.7V24.87a8.09,8.09,0,0,1,16.17,0V28.7a8.09,8.09,0,1,1-16.17,0Zm8.09,12.09a12.05,12.05,0,0,0,2.68-.31v4.36l-.57,1-.19.18-.2.2-.52.5q-.47.48-.9,1l-1.82-3.13v-3.9A12.09,12.09,0,0,0,21.26,40.79ZM4,58.19a12,12,0,0,1,12-12h0l3,5.16c-.11.21-.21.43-.31.65l-.24.51q-.3.65-.56,1.31-.14.37-.27.74c-.11.33-.22.65-.31,1s-.21.78-.3,1.18c0,.19-.09.38-.13.57-.11.54-.19,1.09-.25,1.65,0,.13,0,.25,0,.38,0,.45-.08.9-.09,1.35H10.89V55.11H8.15v5.52H4Zm66.61,7H64.36V57.13H60.69v8.09H30.43V57.13H26.76v8.09H20.51v-4c0-.51,0-1,.08-1.5,0-.17,0-.34.06-.51,0-.32.09-.64.15-1s.07-.39.11-.59c.09-.4.19-.8.31-1.19s.19-.58.29-.87l.15-.4c.12-.31.24-.62.38-.92l0-.1a16.93,16.93,0,0,1,1.06-1.94l.23-.34c.14-.2.27-.41.42-.61l.12-.17h0a16.91,16.91,0,0,1,2.18-2.38l.19-.18q.37-.33.77-.63l.26-.2a16.73,16.73,0,0,1,2.78-1.68l.41-.2.3-.14a16.7,16.7,0,0,1,6.5-1.31h.4l7.59,13,7.39-13h1.13a16.68,16.68,0,0,1,5.93,1.1l1,.48a17.51,17.51,0,0,1,9.85,15.68v3.5ZM87,60.63H82.84V55.11H80.11v5.52H74.58s0-.07,0-.1A20.65,20.65,0,0,0,72,51.23l3-5.06h0a12,12,0,0,1,12,12Z"/></g></g></svg>