<svg xmlns="http://www.w3.org/2000/svg" viewBox="0 0 80 82"><defs><style>.cls-1{fill:none;}.cls-2{fill:#939393;}</style></defs><title>素食店</title><g id="图层_2" data-name="图层 2"><g id="素食店"><path class="cls-1" d="M23.9,58,16,63.76V76.41A20,20,0,0,0,24,60C24,59.33,24,58.67,23.9,58Z"/><path class="cls-1" d="M12,49.71V43.59a17.53,17.53,0,0,0-3.64,3.47Z"/><path class="cls-1" d="M12,64.71V54.66L6.21,50.44A21.36,21.36,0,0,0,4,58.91Z"/><path class="cls-1" d="M18,24c5.51,0,10-3.56,10-7.93h4C32,20.44,36.49,24,42,24s10-3.56,10-7.93h4C56,20.44,60.49,24,66,24s10-3.56,10-7.93V4H8V16.07C8,20.44,12.49,24,18,24Z"/><path class="cls-1" d="M28,60a25.8,25.8,0,0,1-1,7H47V27.19A16,16,0,0,1,42,28a14.64,14.64,0,0,1-12-5.79A14.64,14.64,0,0,1,18,28a15.92,15.92,0,0,1-6-1.17V38.92A19.43,19.43,0,0,1,14,38C22.15,41.15,28,49.81,28,60Z"/><path class="cls-1" d="M16,43.59V58.81l7.06-5.14A19,19,0,0,0,16,43.59Z"/><path class="cls-1" d="M12,69.66,4.39,64.12A19.39,19.39,0,0,0,12,76.41Z"/><path class="cls-1" d="M54,22.21a12.8,12.8,0,0,1-3,3V67H72V26.83A15.92,15.92,0,0,1,66,28,14.64,14.64,0,0,1,54,22.21ZM58,50H54V39h4Z"/><path class="cls-1" d="M22.29,76H76V71H25.52A23.42,23.42,0,0,1,22.29,76Z"/><path d="M80,16.07V0H4V16.07A11.06,11.06,0,0,0,8,24.4V41.67A24.29,24.29,0,0,0,0,60C0,70.19,5.85,78.85,14,82a19.74,19.74,0,0,0,3.82-2H80V67H76V24.4A11.06,11.06,0,0,0,80,16.07ZM8,4H76V16.07C76,20.44,71.51,24,66,24s-10-3.56-10-7.93H52C52,20.44,47.51,24,42,24s-10-3.56-10-7.93H28C28,20.44,23.51,24,18,24S8,20.44,8,16.07Zm4,22.83A15.92,15.92,0,0,0,18,28a14.64,14.64,0,0,0,12-5.79A14.64,14.64,0,0,0,42,28a16,16,0,0,0,5-.81V67H27a25.8,25.8,0,0,0,1-7c0-10.19-5.85-18.85-14-22a19.43,19.43,0,0,0-2,.92Zm4,49.58V63.76L23.9,58c.06.66.1,1.32.1,2A20,20,0,0,1,16,76.41Zm0-32.83a19,19,0,0,1,7.06,10.08L16,58.81Zm-4,0v6.12L8.36,47.06A17.53,17.53,0,0,1,12,43.59Zm0,11.07V64.71l-8-5.8a21.36,21.36,0,0,1,2.18-8.46ZM4.39,64.12,12,69.66v6.75A19.39,19.39,0,0,1,4.39,64.12ZM76,76H22.29a23.42,23.42,0,0,0,3.23-5H76Zm-4-9H51V25.17a12.8,12.8,0,0,0,3-3A14.64,14.64,0,0,0,66,28a15.92,15.92,0,0,0,6-1.17Z"/><rect x="54" y="39" width="4" height="11"/><path class="cls-2" d="M4,80h.24L4,79.78Z"/></g></g></svg>