<svg xmlns="http://www.w3.org/2000/svg" viewBox="0 0 84.01 96.58"><defs><style>.cls-1{fill:none;}</style></defs><title>素食人口</title><g id="图层_2" data-name="图层 2"><g id="素食人口"><path class="cls-1" d="M64.74,59.58a8.75,8.75,0,0,0,8.74-8.74V43.32c0-.24,0-.47,0-.71-3,2.09-8.5,4.59-17.45,4.92v3.3A8.75,8.75,0,0,0,64.74,59.58Z"/><path class="cls-1" d="M72.1,38.63A8.73,8.73,0,0,0,56,43.32v.22C65.16,43.17,70,40.31,72.1,38.63Z"/><path class="cls-1" d="M64.07,63.55c-.34,0-.67,0-1-.09l.49.79Z"/><path class="cls-1" d="M41.29,22.17V5.44a15.74,15.74,0,0,0-5.86,9.39Z"/><path class="cls-1" d="M41.29,27.66,35,19.84A16.2,16.2,0,0,0,41.29,32Z"/><path class="cls-1" d="M44.71,19.27V32A16.38,16.38,0,0,0,51,18.7a17.87,17.87,0,0,0-1-6Z"/><path class="cls-1" d="M44.71,13.78,48.3,9.29a14.56,14.56,0,0,0-3.59-3.85Z"/><path class="cls-1" d="M15.12,59.72h2l1.2,1.65,2.4,3.31L24,60.45l.12-.15.13-.14L30,53.92V45.58c0-6.37-4.8-11-11.42-11-6.29,0-11.42,5.38-11.42,12V60.17a18.38,18.38,0,0,1,4.25-.45ZM9,44.58H28v5.5a9.5,9.5,0,0,1-19,0Z"/><path class="cls-1" d="M40,49,27.17,62.87,20.68,71.4l-5.56-7.67H11.42c-4.1,0-7.42,1.21-7.42,5V92.58H6.5v-15h4v15H30V72.11L40,57.87Z"/><path class="cls-1" d="M72.59,63.72H68.88L63.32,71.4,56.83,61,44,48.33v9L54.05,72.11V92.58H73v-16h4v16h3V68.7C80,64.94,76.69,63.72,72.59,63.72Z"/><path class="cls-1" d="M18.5,55.58a5.51,5.51,0,0,0,5.5-5.5v-1.5H13v1.5A5.51,5.51,0,0,0,18.5,55.58Z"/><path d="M73.82,59.76a12.69,12.69,0,0,0,3.66-8.92V43.32a12.74,12.74,0,1,0-25.48,0v7.29l-7-6.88-2.94-2.91-2.81,3L34,49.59v-4c0-8.55-6.63-15-15.42-15-8.5,0-15.42,7.18-15.42,16V62A8.46,8.46,0,0,0,0,68.7V96.58H34V73.38l8.22-11.65,7.88,11.61V96.58H84V68.7C84,66.68,83.24,60.27,73.82,59.76ZM56,47.54c8.94-.33,14.41-2.84,17.45-4.92,0,.23,0,.47,0,.71v7.52a8.74,8.74,0,1,1-17.48,0Zm8.07,16-.51.7-.49-.79C63.4,63.5,63.73,63.53,64.07,63.55Zm.67-29a8.73,8.73,0,0,1,7.36,4.05C70,40.31,65.16,43.17,56,43.54v-.22A8.75,8.75,0,0,1,64.74,34.58Zm-57.57,12c0-6.62,5.12-12,11.42-12,6.62,0,11.42,4.63,11.42,11v8.34l-5.76,6.23-.13.14-.12.15-3.23,4.24-2.4-3.31-1.2-1.65H11.42a18.38,18.38,0,0,0-4.25.45ZM30,72.11V92.58H10.5v-15h-4v15H4V68.7c0-3.77,3.32-5,7.42-5h3.71l5.56,7.67,6.49-8.53L40,49v8.87ZM80,92.58H77v-16H73v16H54.05V72.11L44,57.3v-9L56.83,61,63.32,71.4l5.56-7.67h3.71c4.1,0,7.42,1.21,7.42,5Z"/><path d="M18.5,59.58a9.51,9.51,0,0,0,9.5-9.5v-5.5H9v5.5A9.51,9.51,0,0,0,18.5,59.58Zm-5.5-11H24v1.5a5.5,5.5,0,0,1-11,0Z"/><path d="M43,37.39c7-2.61,12-10,12-18.7S50,2.61,43,0C36,2.61,31,10,31,18.7S36,34.78,43,37.39ZM35,19.84l6.25,7.82V32A16.2,16.2,0,0,1,35,19.84ZM44.71,32V19.27L50,12.7a17.87,17.87,0,0,1,1,6A16.38,16.38,0,0,1,44.71,32ZM48.3,9.29l-3.59,4.49V5.44A14.56,14.56,0,0,1,48.3,9.29Zm-7-3.85V22.17l-5.86-7.33A15.74,15.74,0,0,1,41.29,5.44Z"/></g></g></svg>