<svg xmlns="http://www.w3.org/2000/svg" viewBox="0 0 76.77 85.41"><defs><style>.cls-1{fill:none;}.cls-2{fill:#6cc24a;}</style></defs><title>彩色选择少</title><g id="图层_2" data-name="图层 2"><g id="菜色选择少"><path class="cls-1" d="M45.94,50.29V35.78a5.36,5.36,0,0,1,10.73,0V49.16A5.3,5.3,0,0,1,58,49a5.36,5.36,0,0,1,4.47,2.42V4H4V69.68H41.14c-.69-2.94-1.4-6.05-1.77-8C38.39,56.76,44.34,51.58,45.94,50.29ZM9.64,12.7h24.6v4H9.64Zm0,9.78H49.22v4H9.64ZM25.38,55.82H9.64v-4H25.38ZM29.2,46H9.64V42H29.2Zm11.61-9.78H9.64v-4H40.81Z"/><path class="cls-1" d="M71.4,56.54A1.36,1.36,0,0,0,70,57.9v5.63H66V62.42h0V56.8a1.31,1.31,0,0,0-2.61-.2V60h0v2.47h-4V56.8c0-.07,0-.13,0-.19V54.33a1.36,1.36,0,0,0-2.73,0v4.93h-4V35.78a1.36,1.36,0,0,0-2.73,0V61.22h-4V55.77C44.31,57.55,43,59.57,43.29,61c.78,4,3.16,13.74,3.49,15.1.34.76,2.52,5.16,7.45,5.3,5.81.16,10.1-.05,11.28-.12h1a6.3,6.3,0,0,0,5.57-5.54,119.92,119.92,0,0,0,.68-12.18h0V57.9A1.36,1.36,0,0,0,71.4,56.54Z"/><rect class="cls-2" x="9.64" y="12.7" width="24.6" height="4"/><rect class="cls-2" x="9.64" y="32.26" width="31.17" height="4"/><rect class="cls-2" x="9.64" y="42.04" width="19.56" height="4"/><rect class="cls-2" x="9.64" y="22.48" width="39.58" height="4"/><rect class="cls-2" x="9.64" y="51.82" width="15.74" height="4"/><path class="cls-2" d="M71.4,52.54a5.3,5.3,0,0,0-2.72.77,5.3,5.3,0,0,0-2.19-1.53V0H0V73.68H42.09c.46,1.93.8,3.33.84,3.48l.08.26c.13.31,3.15,7.71,11.1,7.93,1.57,0,3,.06,4.36.06,3.64,0,6.25-.12,7.24-.18H66l.88,0a10.23,10.23,0,0,0,9.14-9,121.5,121.5,0,0,0,.71-12.69h0V57.9A5.37,5.37,0,0,0,71.4,52.54Zm-32,9.19c.37,1.9,1.09,5,1.77,8H4V4H62.5V51.38A5.36,5.36,0,0,0,58,49a5.3,5.3,0,0,0-1.36.2V35.78a5.36,5.36,0,0,0-10.73,0V50.29C44.34,51.58,38.39,56.76,39.37,61.73Zm33.39,1.79a119.92,119.92,0,0,1-.68,12.18,6.3,6.3,0,0,1-5.57,5.54h-1c-1.18.07-5.46.27-11.28.12-4.93-.13-7.11-4.54-7.45-5.3-.33-1.36-2.71-11.14-3.49-15.1-.27-1.38,1-3.41,2.64-5.19v5.45h4V35.78a1.36,1.36,0,0,1,2.73,0V59.26h4V54.33a1.36,1.36,0,0,1,2.73,0V56.6c0,.07,0,.13,0,.19v5.63h4V60h0V56.6a1.31,1.31,0,0,1,2.61.2v5.63h0v1.11h4V57.9a1.36,1.36,0,1,1,2.73,0v5.61Z"/></g></g></svg>