<svg xmlns="http://www.w3.org/2000/svg" viewBox="0 0 80.56 85"><defs><style>.cls-1{fill:none;}</style></defs><title>CP值低</title><g id="图层_2" data-name="图层 2"><g id="CP值低"><path class="cls-1" d="M69.08,53l-6,6.46A8.31,8.31,0,0,1,63.25,61v.48a8.32,8.32,0,0,1-8.31,8.31h-19v-4h19a4.32,4.32,0,0,0,4.31-4.31V61A4.27,4.27,0,0,0,59,59.5c0-.12-.1-.23-.15-.34s-.12-.24-.19-.36-.12-.19-.18-.28a4.34,4.34,0,0,0-.31-.38l-.17-.19a4.34,4.34,0,0,0-.56-.46l-.21-.13a4.3,4.3,0,0,0-.45-.24L56.46,57a4.28,4.28,0,0,0-.49-.15l-.25-.06a4.29,4.29,0,0,0-.78-.08H51.3l-.2.07,0-.07H42.3L41.7,56l-.18-.24-.12-.15a15.14,15.14,0,0,0-21.31-1.7l-10.53,9H4V81l49.46,0a4.34,4.34,0,0,0,2.79-1.36L75.41,58.89A4.31,4.31,0,1,0,69.08,53Z"/><path class="cls-1" d="M44.22,52.71h6.42A25,25,0,1,0,17.75,29a24.82,24.82,0,0,0,7.44,17.79l-.09.09A19.13,19.13,0,0,1,44.22,52.71Zm3.47-22a18.3,18.3,0,0,0-4.31-1.43,39.35,39.35,0,0,1-6.43-2,6.14,6.14,0,0,1-3.64-5.71,6.41,6.41,0,0,1,.76-3.08,6.83,6.83,0,0,1,2.07-2.36,8.7,8.7,0,0,1,2.68-1.23A12.13,12.13,0,0,1,41,14.51V9.25h4v5.36a12.52,12.52,0,0,1,2.61.66,7,7,0,0,1,3.27,2.29,8.93,8.93,0,0,1,1.45,3.86L48.21,22a4.51,4.51,0,0,0-1.63-3,6,6,0,0,0-3.81-1.08,6.9,6.9,0,0,0-4.15,1,2.8,2.8,0,0,0-1.24,2.25,2.33,2.33,0,0,0,.52,1.48,3.72,3.72,0,0,0,1.62,1.13q.63.23,3.73,1.08a51.88,51.88,0,0,1,6.25,2A6.34,6.34,0,0,1,52.27,29a6.18,6.18,0,0,1,1,3.61,7.08,7.08,0,0,1-1.23,4,8,8,0,0,1-3.55,2.88,12.1,12.1,0,0,1-3.49.91V45.5H41V40.31a10,10,0,0,1-5.15-1.89,9.37,9.37,0,0,1-3.25-6l4.17-.66a5.83,5.83,0,0,0,2,3.84A6.82,6.82,0,0,0,43.22,37a6.59,6.59,0,0,0,4.31-1.18A3.54,3.54,0,0,0,48.94,33,2.56,2.56,0,0,0,47.7,30.76Z"/><path d="M77.89,49.86h0a8.32,8.32,0,0,0-11.75.46l-4.89,5.29-.13-.13c-.14-.15-.27-.3-.42-.44l-.21-.19-.43-.36-.24-.18L59.35,54l-.24-.15-.52-.28-.24-.12,0,0A29,29,0,1,0,13.75,29a28.76,28.76,0,0,0,7.43,19.37,19,19,0,0,0-3.68,2.44l-9.41,8H0V85H53.3l.34,0,.24,0a8.3,8.3,0,0,0,5.3-2.62L78.34,61.61a8.31,8.31,0,0,0-.46-11.75ZM17.75,29A25,25,0,1,1,50.64,52.71H44.22A19.13,19.13,0,0,0,25.1,46.88l.09-.09A24.82,24.82,0,0,1,17.75,29ZM75.41,58.89,56.25,79.61A4.34,4.34,0,0,1,53.46,81L4,81V62.83H9.56l10.53-9a15.14,15.14,0,0,1,21.31,1.7l.12.15.18.24.6.76h8.79l0,.07.2-.07h3.63a4.29,4.29,0,0,1,.78.08l.25.06a4.28,4.28,0,0,1,.49.15l.27.11a4.3,4.3,0,0,1,.45.24l.21.13a4.34,4.34,0,0,1,.56.46l.17.19a4.34,4.34,0,0,1,.31.38c.07.09.12.19.18.28s.13.23.19.36.11.22.15.34A4.27,4.27,0,0,1,59.25,61v.48a4.32,4.32,0,0,1-4.31,4.31h-19v4h19a8.32,8.32,0,0,0,8.31-8.31V61a8.31,8.31,0,0,0-.15-1.53l6-6.46a4.31,4.31,0,1,1,6.33,5.86Z"/><path d="M43.22,37a6.82,6.82,0,0,1-4.49-1.34,5.83,5.83,0,0,1-2-3.84l-4.17.66a9.37,9.37,0,0,0,3.25,6A10,10,0,0,0,41,40.31V45.5h4V40.33a12.1,12.1,0,0,0,3.49-.91A8,8,0,0,0,52,36.54a7.08,7.08,0,0,0,1.23-4,6.18,6.18,0,0,0-1-3.61,6.34,6.34,0,0,0-2.78-2.21,51.88,51.88,0,0,0-6.25-2q-3.09-.84-3.73-1.08a3.72,3.72,0,0,1-1.62-1.12,2.33,2.33,0,0,1-.52-1.48,2.8,2.8,0,0,1,1.24-2.25,6.9,6.9,0,0,1,4.15-1A6,6,0,0,1,46.58,19a4.51,4.51,0,0,1,1.63,3l4.13-.56a8.93,8.93,0,0,0-1.45-3.86,7,7,0,0,0-3.27-2.29A12.52,12.52,0,0,0,45,14.61V9.25H41v5.26a12.13,12.13,0,0,0-2.18.42,8.7,8.7,0,0,0-2.68,1.23,6.83,6.83,0,0,0-2.07,2.36,6.41,6.41,0,0,0-.76,3.08,6.14,6.14,0,0,0,3.64,5.71,39.35,39.35,0,0,0,6.43,2,18.3,18.3,0,0,1,4.31,1.43A2.56,2.56,0,0,1,48.94,33a3.54,3.54,0,0,1-1.41,2.78A6.59,6.59,0,0,1,43.22,37Z"/></g></g></svg>