<svg xmlns="http://www.w3.org/2000/svg" viewBox="0 0 78 81.68"><defs><style>.cls-1{fill:none;}</style></defs><title>地点便捷性低</title><g id="图层_2" data-name="图层 2"><g id="地点便捷性低"><path class="cls-1" d="M24.16,20.51a9.67,9.67,0,1,0-13.67,0l6.84,6.84ZM11,13.89a6.34,6.34,0,1,1,6.34,6.34A6.35,6.35,0,0,1,11,13.89Z"/><circle class="cls-1" cx="51.47" cy="62.47" r="2.34"/><circle class="cls-1" cx="17.32" cy="13.89" r="2.34"/><path class="cls-1" d="M58.21,69.1a9.67,9.67,0,1,0-13.74.07l.17.19L49.75,76ZM45.13,62.47a6.34,6.34,0,1,1,6.34,6.34A6.35,6.35,0,0,1,45.13,62.47Z"/><path d="M23.67,13.89a6.34,6.34,0,1,0-6.34,6.34A6.35,6.35,0,0,0,23.67,13.89Zm-8.69,0a2.34,2.34,0,1,1,2.34,2.34A2.35,2.35,0,0,1,15,13.89Z"/><path d="M57.82,62.47a6.34,6.34,0,1,0-6.34,6.34A6.35,6.35,0,0,0,57.82,62.47Zm-8.69,0a2.34,2.34,0,1,1,2.34,2.34A2.35,2.35,0,0,1,49.13,62.47Z"/><path d="M77.87,8.4a8,8,0,0,0-7.81-6.57H65.49a7.94,7.94,0,0,0-7.92,7.48h0V37.63a5.31,5.31,0,0,1-10.62,0V32.15a9.31,9.31,0,0,0-18.62,0V71a3,3,0,0,1-3,3H7a3,3,0,0,1-3-3V43c0-.74.85-1.37,1.86-1.37s1.86.63,1.86,1.37v7h0v5.65A5.64,5.64,0,0,0,13.58,61a5.64,5.64,0,0,0,5.86-5.37V30.89L27,23.33a13.67,13.67,0,1,0-19.33,0l7.78,7.78V55.66c0,.74-.85,1.37-1.86,1.37s-1.86-.63-1.86-1.37v-7h0V43a5.64,5.64,0,0,0-5.86-5.37A5.64,5.64,0,0,0,0,43V71H0a7,7,0,0,0,7,7H25.3a7,7,0,0,0,7-6.57h0V32.15a5.31,5.31,0,0,1,10.62,0v5.48a9.31,9.31,0,0,0,18.62,0V9.77a3.94,3.94,0,0,1,3.94-3.94h4.57A3.94,3.94,0,0,1,74,9.77V71.89c0,3-4.3,5.76-7.64,5.77H54l6.78-5.52L61,72a13.67,13.67,0,1,0-19.42-.09l7.55,9.78,0,0H66.51C71.86,81.57,78,77.34,78,71.89V8.4ZM7.65,13.67a9.67,9.67,0,1,1,16.51,6.84l-6.84,6.84-6.84-6.84A9.61,9.61,0,0,1,7.65,13.67Zm37,55.69-.17-.19a9.67,9.67,0,1,1,13.74-.07L49.75,76Z"/></g></g></svg>