<svg xmlns="http://www.w3.org/2000/svg" viewBox="0 0 97.63 83.86"><defs><style>.cls-1{fill:none;}.cls-2{fill:#6cc24a;}</style></defs><title>MISSION</title><g id="图层_2" data-name="图层 2"><g id="接棒"><path class="cls-1" d="M51.55,22.65l16.73-11.9A3.72,3.72,0,0,0,64,4.69L48.22,15.89l.82.44A5.2,5.2,0,0,1,51.55,22.65Z"/><path class="cls-1" d="M52.86,30.37l-9.61-5.1a1.08,1.08,0,0,0-.5-.13,1.09,1.09,0,0,0-.32,0,1.07,1.07,0,0,0-.64.52,1.08,1.08,0,0,0,.45,1.46l9.61,5.1a1.08,1.08,0,0,0,1.46-.45,1.08,1.08,0,0,0-.45-1.46Z"/><path class="cls-1" d="M47.16,21.91a1.08,1.08,0,0,0,.64-.6,1.19,1.19,0,0,0-.63-1.44L30,10.76a1.11,1.11,0,0,0-.25-.09l-.12,0a3.66,3.66,0,0,0-3.44.64l-.12.09-7.94,5.46a3.62,3.62,0,0,0-1.24,2.11,3.67,3.67,0,0,0,4,4.33A5.83,5.83,0,0,0,23,22.34l9.32-6.59,1-.76,1.18.57,11.83,6.29A1.07,1.07,0,0,0,47.16,21.91Z"/><path class="cls-1" d="M24.64,41.68A5.08,5.08,0,0,1,28,35.34a5.11,5.11,0,0,1,.88-.18A4.82,4.82,0,0,1,33,30.57a5,5,0,0,1,4.68-4.87,4.84,4.84,0,0,1,1.5-3.08L39,22.48,5.56,46.25A3.72,3.72,0,1,0,9.87,52.3L24.68,41.77Z"/><path class="cls-1" d="M48.2,34.9l-9.6-5.1a1.08,1.08,0,1,0-1,1.9l9.6,5.1a1.08,1.08,0,1,0,1-1.9Z"/><path class="cls-1" d="M43.88,39.6l-9.43-5a1.08,1.08,0,1,0-1,1.9l9.43,5a1.08,1.08,0,1,0,1-1.9Z"/><path class="cls-1" d="M37.6,43.28l-7.6-4a1.08,1.08,0,0,0-1,1.9l7.6,4a1.08,1.08,0,1,0,1-1.9Z"/><path class="cls-1" d="M93.05,62.59,89,55.94a3.82,3.82,0,0,0-.27-.38l-.13-.19L80,41.35a1,1,0,0,0-.6-.44,1,1,0,0,0-.23,0,1,1,0,0,0-.51.14,1,1,0,0,0-.33,1.34L85.22,53.6l-1.68,1A4,4,0,0,0,82.25,60l4.06,6.66a3.95,3.95,0,0,0,6.74-4.11Z"/><path class="cls-2" d="M48.43,40.87a5.14,5.14,0,0,0,.75-.17,5.07,5.07,0,0,0,3.56-4.33,5.07,5.07,0,0,0,2-9.54l-1.25-.67L70.59,14A7.72,7.72,0,1,0,61.65,1.43L44.27,13.8,31.9,7.22a5.09,5.09,0,0,0-1.08-.42,7.64,7.64,0,0,0-7.05,1.3l-8,5.47-.12.09A7.67,7.67,0,0,0,20.5,27.29a7.89,7.89,0,0,0,.92-.05,9.35,9.35,0,0,0,3.81-1.58l8.47-6,1.31.7L16.1,33.84,8.35,29.71,6.47,33.25l6,3.18L3.24,43a7.72,7.72,0,0,0,8.95,12.57L27.32,44.79l7.39,3.93A5,5,0,0,0,42,45.44a5,5,0,0,0,1.36.2,5.09,5.09,0,0,0,4.49-2.7A5,5,0,0,0,48.43,40.87Zm.21-4.52a1.08,1.08,0,0,1-1.46.45l-9.6-5.1a1.08,1.08,0,0,1,1-1.9l9.6,5.1a1.08,1.08,0,0,1,.45,1.46Zm4.66-4.52a1.08,1.08,0,0,1-1.46.45l-9.61-5.1a1.08,1.08,0,0,1-.45-1.46,1.07,1.07,0,0,1,.64-.52,1.09,1.09,0,0,1,.32,0,1.08,1.08,0,0,1,.5.13l9.61,5.1a1.08,1.08,0,0,1,.45,1.46ZM64,4.69a3.72,3.72,0,1,1,4.31,6.06L51.55,22.65A5.2,5.2,0,0,0,49,16.33l-.82-.44ZM33.29,15l-1,.76L23,22.34a5.83,5.83,0,0,1-2.06.93,3.67,3.67,0,0,1-4-4.33,3.62,3.62,0,0,1,1.24-2.11l7.94-5.46.12-.09a3.66,3.66,0,0,1,3.44-.64l.13,0a1.11,1.11,0,0,1,.25.09l17.14,9.11a1.19,1.19,0,0,1,.63,1.44,1.08,1.08,0,0,1-1.5.54L34.47,15.56ZM9.87,52.3a3.72,3.72,0,1,1-4.31-6.06L39,22.48l.25.13a4.84,4.84,0,0,0-1.5,3.08A5,5,0,0,0,33,30.57a5,5,0,0,0-4.15,4.59,5.11,5.11,0,0,0-.88.18,5.08,5.08,0,0,0-3.37,6.34l0,.09ZM38,44.74a1.08,1.08,0,0,1-1.46.45l-7.6-4a1.08,1.08,0,1,1,1-1.9l7.6,4A1.08,1.08,0,0,1,38,44.74Zm6.28-3.68a1.08,1.08,0,0,1-1.46.45l-9.43-5a1.08,1.08,0,1,1,1-1.9l9.43,5A1.08,1.08,0,0,1,44.33,41.06Z"/><path class="cls-2" d="M96.47,60.51l-4.06-6.66a7.6,7.6,0,0,0-.46-.66L83.46,39.27A5,5,0,0,0,75,44.45l4.92,8.06a7.85,7.85,0,0,0-.63.77L61.51,45.39a4.74,4.74,0,0,0-3.76,0A5,5,0,0,0,55.06,48a5.15,5.15,0,0,0-.31.94l-1.16-.52a4.67,4.67,0,0,0-3.75,0A5.13,5.13,0,0,0,47,54.72a4.72,4.72,0,0,0,1.26,1.91,5,5,0,0,0,1.85,7.65l1.79.8a5,5,0,0,0,2,7.43L79.51,83.86l1.63-3.66L55.58,68.85a1,1,0,0,1,0-1.81,1,1,0,0,1,.75,0L71.93,74l1.63-3.66-.45-.2h0l-21.35-9.5a1,1,0,1,1,.79-1.79l19.64,8.73,1.63-3.66-3.71-1.65h0L51.17,53.84a.7.7,0,0,1-.37-.43,1.13,1.13,0,0,1,.6-1.35A.7.7,0,0,1,52,52l18.43,8.2h0L73,61.39l1.63-3.66-15.51-6.9a.78.78,0,0,1-.41-.46,1.08,1.08,0,0,1,.59-1.32.77.77,0,0,1,.62,0L77.75,57a7.9,7.9,0,0,0,1.09,5.14l4.06,6.66a7.95,7.95,0,0,0,13.57-8.28Zm-3,5.07a3.94,3.94,0,0,1-7.2,1.13L82.25,60a4,4,0,0,1,1.29-5.4l1.68-1L78.37,42.37A1,1,0,0,1,78.7,41a1,1,0,0,1,.51-.14,1,1,0,0,1,.23,0,1,1,0,0,1,.6.44l8.55,14,.13.19a3.82,3.82,0,0,1,.27.38l4.06,6.66h0A3.92,3.92,0,0,1,93.51,65.58Z"/></g></g></svg>