<svg xmlns="http://www.w3.org/2000/svg" viewBox="0 0 78.67 78.67"><defs><style>.cls-1{fill:none;}</style></defs><title>友善度低</title><g id="图层_2" data-name="图层 2"><g id="友善度低"><path class="cls-1" d="M39.33,4A35.33,35.33,0,1,0,74.67,39.33,35.37,35.37,0,0,0,39.33,4Zm9,20.63,2.83-2.83L54,24.63l2.83-2.83,2.83,2.83-2.83,2.83,2.83,2.83-2.83,2.83L54,30.29l-2.83,2.83-2.83-2.83,2.83-2.83Zm-29.67,0L21.5,21.8l2.83,2.83,2.83-2.83L30,24.63l-2.83,2.83L30,30.29l-2.83,2.83-2.83-2.83L21.5,33.11l-2.83-2.83,2.83-2.83ZM59,61.88C55,57.66,47.72,55,39.88,55s-15.14,2.61-19.06,6.82l-2.93-2.73c4.73-5.07,12.95-8.09,22-8.09s17.28,3,22,8.12Z"/><path d="M39.33,0A39.33,39.33,0,1,0,78.67,39.33,39.38,39.38,0,0,0,39.33,0Zm0,74.67A35.33,35.33,0,1,1,74.67,39.33,35.37,35.37,0,0,1,39.33,74.67Z"/><polygon points="21.5 33.12 24.33 30.29 27.16 33.12 29.99 30.29 27.16 27.46 29.99 24.63 27.16 21.8 24.33 24.63 21.5 21.8 18.68 24.63 21.5 27.46 18.68 30.29 21.5 33.12"/><polygon points="51.17 33.12 54 30.29 56.83 33.12 59.66 30.29 56.83 27.46 59.66 24.63 56.83 21.8 54 24.63 51.17 21.8 48.34 24.63 51.17 27.46 48.34 30.29 51.17 33.12"/><path d="M39.88,51c-9,0-17.26,3-22,8.09l2.93,2.73C24.74,57.66,32,55,39.88,55S55,57.66,59,61.88l2.93-2.72C57.16,54.08,48.93,51,39.88,51Z"/></g></g></svg>