<svg xmlns="http://www.w3.org/2000/svg" viewBox="0 0 91.95 74.5"><defs><style>.cls-1{fill:#6cc24a;}</style></defs><title>VISION</title><g id="图层_2" data-name="图层 2"><g id="目标"><path class="cls-1" d="M39.84,34a15.29,15.29,0,1,0,3.71-7.09l3.7,2A11.27,11.27,0,1,1,43.56,36Z"/><path class="cls-1" d="M29.89,28.76a26.28,26.28,0,1,0,3.72-7.08l3.59,1.9a22.07,22.07,0,1,1-3.73,7.08Z"/><path class="cls-1" d="M54.7,0A37.24,37.24,0,0,0,23.79,16.48l3.56,1.88a33.14,33.14,0,1,1-3.73,7.08l-3.56-1.88A37.24,37.24,0,1,0,54.7,0Z"/><path class="cls-1" d="M50.5,37.27a4.21,4.21,0,1,0,1.89-3.53L20,16.77,18.9,7.69,9.45,2.22l1.36,11.6L0,18.54,9.45,24,18,20.27Z"/></g></g></svg>